<?xml version="1.0" encoding="UTF-8" standalone="no"?>
<!-- Generator: Adobe Illustrator 19.0.0, SVG Export Plug-In . SVG Version: 6.00 Build 0)  -->

<svg
   xmlns:dc="http://purl.org/dc/elements/1.1/"
   xmlns:cc="http://creativecommons.org/ns#"
   xmlns:rdf="http://www.w3.org/1999/02/22-rdf-syntax-ns#"
   xmlns:svg="http://www.w3.org/2000/svg"
   xmlns="http://www.w3.org/2000/svg"
   xmlns:xlink="http://www.w3.org/1999/xlink"
   xmlns:sodipodi="http://sodipodi.sourceforge.net/DTD/sodipodi-0.dtd"
   xmlns:inkscape="http://www.inkscape.org/namespaces/inkscape"
   version="1.1"
   id="Layer_1"
   x="0px"
   y="0px"
   viewBox="0 0 512 512"
   style="enable-background:new 0 0 512 512;"
   xml:space="preserve"
   sodipodi:docname="shark-svgrepo-com.svg"
   inkscape:version="0.92.5 (2060ec1f9f, 2020-04-08)"><metadata
   id="metadata53"><rdf:RDF><cc:Work
       rdf:about=""><dc:format>image/svg+xml</dc:format><dc:type
         rdf:resource="http://purl.org/dc/dcmitype/StillImage" /></cc:Work></rdf:RDF></metadata><defs
   id="defs51"><linearGradient
     id="linearGradient1063"
     inkscape:collect="always"><stop
       id="stop1059"
       offset="0"
       style="stop-color:#006094;stop-opacity:0.88294315" /><stop
       id="stop1061"
       offset="1"
       style="stop-color:#63005b;stop-opacity:0.78595316" /></linearGradient><linearGradient
     id="linearGradient1057"
     inkscape:collect="always"><stop
       id="stop1053"
       offset="0"
       style="stop-color:#09a9ff;stop-opacity:1" /><stop
       id="stop1055"
       offset="1"
       style="stop-color:#ff3bf0;stop-opacity:0.59531772" /></linearGradient><linearGradient
     inkscape:collect="always"
     id="linearGradient1029"><stop
       style="stop-color:#005380;stop-opacity:1"
       offset="0"
       id="stop1025" /><stop
       style="stop-color:#ff3bf0;stop-opacity:0.59531772"
       offset="1"
       id="stop1027" /></linearGradient><linearGradient
     inkscape:collect="always"
     id="linearGradient992"><stop
       style="stop-color:#000000;stop-opacity:1;"
       offset="0"
       id="stop988" /><stop
       style="stop-color:#000000;stop-opacity:0;"
       offset="1"
       id="stop990" /></linearGradient><linearGradient
     inkscape:collect="always"
     xlink:href="#linearGradient992"
     id="linearGradient996"
     gradientUnits="userSpaceOnUse"
     x1="60.595455"
     y1="246.60724"
     x2="475.55927"
     y2="249.67537" /><linearGradient
     inkscape:collect="always"
     xlink:href="#linearGradient1057"
     id="linearGradient1031"
     x1="18.408747"
     y1="259.64676"
     x2="493.96802"
     y2="261.18085"
     gradientUnits="userSpaceOnUse" /><linearGradient
     inkscape:collect="always"
     xlink:href="#linearGradient1029"
     id="linearGradient1041"
     gradientUnits="userSpaceOnUse"
     x1="208.63245"
     y1="355.52567"
     x2="275.36417"
     y2="314.10599" /><linearGradient
     inkscape:collect="always"
     xlink:href="#linearGradient1063"
     id="linearGradient1051"
     gradientUnits="userSpaceOnUse"
     x1="134.99747"
     y1="365.49707"
     x2="165.5696"
     y2="354.62695" /></defs><sodipodi:namedview
   pagecolor="#ffffff"
   bordercolor="#666666"
   borderopacity="1"
   objecttolerance="10"
   gridtolerance="10"
   guidetolerance="10"
   inkscape:pageopacity="0"
   inkscape:pageshadow="2"
   inkscape:window-width="1920"
   inkscape:window-height="1043"
   id="namedview49"
   showgrid="false"
   inkscape:zoom="1.3037281"
   inkscape:cx="106.03886"
   inkscape:cy="192.58152"
   inkscape:window-x="1920"
   inkscape:window-y="0"
   inkscape:window-maximized="1"
   inkscape:current-layer="layer1" />

<g
   id="g18">
</g>
<g
   id="g20">
</g>
<g
   id="g22">
</g>
<g
   id="g24">
</g>
<g
   id="g26">
</g>
<g
   id="g28">
</g>
<g
   id="g30">
</g>
<g
   id="g32">
</g>
<g
   id="g34">
</g>
<g
   id="g36">
</g>
<g
   id="g38">
</g>
<g
   id="g40">
</g>
<g
   id="g42">
</g>
<g
   id="g44">
</g>
<g
   id="g46">
</g>
<g
   inkscape:groupmode="layer"
   id="layer1"
   inkscape:label="fill"
   style="display:inline"><path
     style="fill:#008000;fill-opacity:0;stroke-width:0.76703107"
     d="M 141.16584,345.4485 C 92.83291,340.30917 50.393751,310.29524 29.115764,266.20418 21.376279,250.16686 15.265233,227.93283 16.934854,221.88596 c 0.834731,-3.02314 3.948074,-6.30351 7.119967,-7.50194 1.468775,-0.55494 24.813057,-0.81583 73.000856,-0.81583 h 70.841593 l 2.24755,-1.89118 c 1.33677,-1.12482 2.93804,-3.78492 3.95149,-6.56442 7.01211,-19.23136 23.30501,-36.87994 41.78087,-45.25729 5.91956,-2.68406 16.09189,-5.71592 21.74586,-6.48135 l 4.02692,-0.54516 0.0244,27.87685 c 0.0258,29.54532 -0.0506,28.90864 3.78968,31.55545 1.75145,1.20715 7.05083,1.3071 69.29796,1.3071 61.57384,0 67.58889,-0.1107 69.56905,-1.28041 1.19217,-0.70423 2.51588,-1.9986 2.94157,-2.87637 0.4257,-0.87777 0.9283,-7.8089 1.11688,-15.40251 0.30871,-12.43023 0.5483,-14.41534 2.40337,-19.91356 3.53212,-10.46873 10.75673,-19.64494 19.51222,-24.78308 3.21906,-1.8891 12.40446,-5.54389 13.93317,-5.54389 0.45321,0 0.73214,12.26888 0.73214,32.2032 v 32.2032 l 2.2376,2.50496 2.23759,2.50495 32.67093,0.21569 32.67092,0.2157 -0.49499,2.0854 c -3.44104,14.49716 -16.03268,27.84827 -30.58698,32.43184 -1.97211,0.62107 -10.51538,1.12746 -23.91546,1.41755 -19.43278,0.42069 -20.9901,0.55801 -22.95162,2.02386 -1.15735,0.86491 -2.36358,2.07299 -2.6805,2.68461 -0.31691,0.61163 -2.69417,5.59919 -5.28279,11.08346 -13.77524,29.18441 -35.53725,51.4735 -64.37053,65.92965 -14.84089,7.44078 -32.06036,12.4683 -48.3954,14.12988 l -7.28679,0.74121 -25.31203,-25.20254 c -22.76463,-22.66617 -25.82708,-25.44352 -30.42981,-27.59698 -7.07113,-3.30832 -13.96881,-4.36459 -20.82467,-3.18894 -15.16612,2.60071 -26.502,13.9468 -29.04451,29.07068 -1.45195,8.6368 -0.25009,13.83526 6.11823,26.46355 0.38082,0.75517 -40.7301,0.54963 -48.16374,-0.2408 z"
     id="path969"
     inkscape:connector-curvature="0" /><path
     style="fill:#008000;fill-opacity:0;stroke-width:0.76703107"
     d="m 142.34928,384.57771 c -11.87091,-1.85344 -23.87563,-7.50644 -31.56714,-14.86489 -4.34846,-4.16015 -4.89668,-5.01328 -4.89668,-7.62003 0,-1.68051 0.63922,-3.83309 1.49525,-5.03528 l 1.49526,-2.09991 -4.20561,-1.32569 C 97.788353,351.46254 84.494201,345.32181 76.521289,340.6295 54.862393,327.88256 35.335294,308.72191 22.065816,287.19593 9.190747,266.30978 -1.2124844,233.64852 0.85138226,220.59258 2.2367844,211.82858 7.7972303,204.39138 15.974529,200.3651 l 5.120174,-2.52104 69.224531,-0.38352 69.224536,-0.38351 3.28087,-6.51977 c 16.02429,-31.84354 45.90578,-51.67454 81.50993,-54.09448 6.09132,-0.41401 7.19094,-0.28731 9.34905,1.0772 1.61946,1.02394 2.71939,2.53169 3.25561,4.46267 0.49546,1.7842 0.81148,13.11435 0.8141,29.18708 l 0.004,26.27081 h 57.02692 57.02691 l 0.50749,-9.49284 c 0.77214,-14.44327 4.14687,-25.08092 11.21668,-35.35653 3.16807,-4.60464 10.9903,-12.17682 16.04444,-15.53157 8.97266,-5.95571 22.20645,-10.18592 31.86567,-10.18592 3.59936,0 4.61683,0.3376 6.74385,2.23761 l 2.50495,2.23761 0.21543,33.04582 0.21543,33.04582 h 32.65185 32.65186 l 2.6079,2.60791 c 2.27209,2.27208 2.60791,3.10295 2.60791,6.45229 0,5.33435 -1.7872,14.10904 -4.14896,20.37032 -6.85654,18.17745 -22.89208,32.34906 -42.18736,37.28363 -5.1456,1.31593 -8.52439,1.55212 -22.2439,1.55492 l -16.17672,0.003 -4.793,9.48474 c -7.9652,15.76209 -15.18008,26.05119 -26.63777,37.98796 -24.11397,25.12227 -54.12534,41.20252 -87.41932,46.83972 -7.30056,1.2361 -7.65577,1.38616 -8.21295,3.46949 -0.77234,2.8879 -5.25592,7.41175 -11.38607,11.48832 -18.67106,12.41633 -43.52329,13.44934 -62.82754,2.61149 -4.88555,-2.74263 -12.2421,-8.43746 -16.13537,-12.49042 -2.35798,-2.45471 -3.06696,-2.75174 -6.56802,-2.75174 -3.40731,0 -4.22168,0.31685 -6.17753,2.40356 -4.36218,4.65402 -13.50745,11.40915 -19.06464,14.08205 -10.47306,5.03734 -24.81289,7.35982 -35.31647,5.71987 z m 19.38516,-16.14418 c 1.81904,-0.39592 5.61584,-1.81984 8.43734,-3.16426 l 5.12999,-2.4444 -18.02523,-0.55374 c -9.91388,-0.30456 -20.87889,-1.03851 -24.36669,-1.63101 -5.33364,-0.90606 -6.4786,-0.91203 -7.20434,-0.0376 -1.01164,1.21895 -1.1937,1.01991 3.19088,3.4885 9.41334,5.29988 21.24871,6.86498 32.83805,4.34247 z m 104.46051,-0.0524 c 3.67999,-0.87001 14.57359,-5.86305 14.57359,-6.67976 0,-1.10531 -52.73887,-52.97112 -55.02126,-54.11041 -6.79472,-3.39169 -15.72325,-1.84177 -21.25466,3.68963 -5.95463,5.95464 -7.28247,14.43918 -3.45615,22.08373 2.08526,4.16611 23.21162,25.09571 29.37969,29.10606 10.50203,6.82821 23.09692,8.90892 35.77879,5.91075 z m -75.16904,-21.74951 c 0,-0.21997 -0.87895,-1.72813 -1.9532,-3.35144 -8.92667,-13.48911 -7.03829,-31.08806 4.58272,-42.70907 10.69911,-10.69911 25.71341,-13.127 39.47909,-6.38398 4.41392,2.16213 8.31231,5.6978 30.37582,27.54949 l 25.31203,25.06903 7.24929,-0.66637 c 3.98712,-0.36649 11.19524,-1.55137 16.01805,-2.63303 44.93535,-10.07819 80.60921,-39.36446 99.41605,-81.61512 5.35003,-12.01914 4.11364,-11.50275 27.54399,-11.50427 20.61904,-0.002 24.14065,-0.55444 32.95596,-5.17598 6.06572,-3.18002 11.53917,-7.86859 15.52573,-13.29938 2.8875,-3.93356 6.68152,-12.21808 7.59934,-16.59371 l 0.5179,-2.46906 -33.10501,-0.21555 -33.10501,-0.21555 -1.85063,-2.15211 -1.85061,-2.15211 v -32.55605 c 0,-18.63731 -0.29339,-32.55605 -0.68623,-32.55605 -0.37744,0 -2.87988,0.6778 -5.56098,1.50621 -13.70121,4.23342 -25.07765,15.60001 -29.46336,29.43783 -1.72688,5.44867 -2.04154,8.08896 -2.43581,20.43808 l -0.45276,14.18112 -2.1183,2.11829 -2.1183,2.1183 h -67.83781 c -67.17922,0 -67.85718,-0.0153 -69.83241,-1.56895 -1.09703,-0.86292 -2.34973,-2.84761 -2.78377,-4.41043 -0.46893,-1.68841 -0.79091,-13.37567 -0.79345,-28.80075 l -0.004,-25.95928 -4.02692,0.54517 c -14.12192,1.91182 -29.69072,9.12624 -41.76732,19.35455 -8.49951,7.19869 -18.17704,21.2273 -22.14096,32.09568 -3.52276,9.65879 4.64256,8.73507 -77.417193,8.75799 -67.134834,0.0188 -70.71964,0.0891 -73.708207,1.44636 -6.469054,2.93793 -7.795452,8.78049 -4.932594,21.72725 13.323957,60.25521 64.872317,105.12667 126.963764,110.51854 5.10488,0.4433 46.40538,0.55397 46.40538,0.12435 z"
     id="path971"
     inkscape:connector-curvature="0" /><path
     style="fill:#008000;fill-opacity:0;stroke-width:0.76703107"
     d="M 141.16584,345.4485 C 92.83291,340.30917 50.393751,310.29524 29.115764,266.20418 21.376279,250.16686 15.265233,227.93283 16.934854,221.88596 c 0.834731,-3.02314 3.948074,-6.30351 7.119967,-7.50194 1.468775,-0.55494 24.813057,-0.81583 73.000856,-0.81583 h 70.841593 l 2.24755,-1.89118 c 1.33677,-1.12482 2.93804,-3.78492 3.95149,-6.56442 7.01211,-19.23136 23.30501,-36.87994 41.78087,-45.25729 5.91956,-2.68406 16.09189,-5.71592 21.74586,-6.48135 l 4.02692,-0.54516 0.0244,27.87685 c 0.0258,29.54532 -0.0506,28.90864 3.78968,31.55545 1.75145,1.20715 7.05083,1.3071 69.29796,1.3071 61.57384,0 67.58889,-0.1107 69.56905,-1.28041 1.19217,-0.70423 2.51588,-1.9986 2.94157,-2.87637 0.4257,-0.87777 0.9283,-7.8089 1.11688,-15.40251 0.30871,-12.43023 0.5483,-14.41534 2.40337,-19.91356 3.53212,-10.46873 10.75673,-19.64494 19.51222,-24.78308 3.21906,-1.8891 12.40446,-5.54389 13.93317,-5.54389 0.45321,0 0.73214,12.26888 0.73214,32.2032 v 32.2032 l 2.2376,2.50496 2.23759,2.50495 32.67093,0.21569 32.67092,0.2157 -0.49499,2.0854 c -3.44104,14.49716 -16.03268,27.84827 -30.58698,32.43184 -1.97211,0.62107 -10.51538,1.12746 -23.91546,1.41755 -19.43278,0.42069 -20.9901,0.55801 -22.95162,2.02386 -1.15735,0.86491 -2.36358,2.07299 -2.6805,2.68461 -0.31691,0.61163 -2.69417,5.59919 -5.28279,11.08346 -13.77524,29.18441 -35.53725,51.4735 -64.37053,65.92965 -14.84089,7.44078 -32.06036,12.4683 -48.3954,14.12988 l -7.28679,0.74121 -25.31203,-25.20254 c -22.76463,-22.66617 -25.82708,-25.44352 -30.42981,-27.59698 -7.07113,-3.30832 -13.96881,-4.36459 -20.82467,-3.18894 -15.16612,2.60071 -26.502,13.9468 -29.04451,29.07068 -1.45195,8.6368 -0.25009,13.83526 6.11823,26.46355 0.38082,0.75517 -40.7301,0.54963 -48.16374,-0.2408 z"
     id="path973"
     inkscape:connector-curvature="0" /><path
     style="fill:#008000;fill-opacity:0;stroke-width:0.76703107"
     d="M 141.16584,345.4485 C 92.83291,340.30917 50.393751,310.29524 29.115764,266.20418 21.376279,250.16686 15.265233,227.93283 16.934854,221.88596 c 0.834731,-3.02314 3.948074,-6.30351 7.119967,-7.50194 1.468775,-0.55494 24.813057,-0.81583 73.000856,-0.81583 h 70.841593 l 2.24755,-1.89118 c 1.33677,-1.12482 2.93804,-3.78492 3.95149,-6.56442 7.01211,-19.23136 23.30501,-36.87994 41.78087,-45.25729 5.91956,-2.68406 16.09189,-5.71592 21.74586,-6.48135 l 4.02692,-0.54516 0.0244,27.87685 c 0.0258,29.54532 -0.0506,28.90864 3.78968,31.55545 1.75145,1.20715 7.05083,1.3071 69.29796,1.3071 61.57384,0 67.58889,-0.1107 69.56905,-1.28041 1.19217,-0.70423 2.51588,-1.9986 2.94157,-2.87637 0.4257,-0.87777 0.9283,-7.8089 1.11688,-15.40251 0.30871,-12.43023 0.5483,-14.41534 2.40337,-19.91356 3.53212,-10.46873 10.75673,-19.64494 19.51222,-24.78308 3.21906,-1.8891 12.40446,-5.54389 13.93317,-5.54389 0.45321,0 0.73214,12.26888 0.73214,32.2032 v 32.2032 l 2.2376,2.50496 2.23759,2.50495 32.67093,0.21569 32.67092,0.2157 -0.49499,2.0854 c -3.44104,14.49716 -16.03268,27.84827 -30.58698,32.43184 -1.97211,0.62107 -10.51538,1.12746 -23.91546,1.41755 -19.43278,0.42069 -20.9901,0.55801 -22.95162,2.02386 -1.15735,0.86491 -2.36358,2.07299 -2.6805,2.68461 -0.31691,0.61163 -2.69417,5.59919 -5.28279,11.08346 -13.77524,29.18441 -35.53725,51.4735 -64.37053,65.92965 -14.84089,7.44078 -32.06036,12.4683 -48.3954,14.12988 l -7.28679,0.74121 -25.31203,-25.20254 c -22.76463,-22.66617 -25.82708,-25.44352 -30.42981,-27.59698 -7.07113,-3.30832 -13.96881,-4.36459 -20.82467,-3.18894 -15.16612,2.60071 -26.502,13.9468 -29.04451,29.07068 -1.45195,8.6368 -0.25009,13.83526 6.11823,26.46355 0.38082,0.75517 -40.7301,0.54963 -48.16374,-0.2408 z"
     id="path975"
     inkscape:connector-curvature="0" /><path
     style="fill:#008000;fill-opacity:0;stroke-width:0.76703107"
     d="M 141.16584,345.4485 C 92.83291,340.30917 50.393751,310.29524 29.115764,266.20418 21.376279,250.16686 15.265233,227.93283 16.934854,221.88596 c 0.834731,-3.02314 3.948074,-6.30351 7.119967,-7.50194 1.468775,-0.55494 24.813057,-0.81583 73.000856,-0.81583 h 70.841593 l 2.24755,-1.89118 c 1.33677,-1.12482 2.93804,-3.78492 3.95149,-6.56442 7.01211,-19.23136 23.30501,-36.87994 41.78087,-45.25729 5.91956,-2.68406 16.09189,-5.71592 21.74586,-6.48135 l 4.02692,-0.54516 0.0244,27.87685 c 0.0258,29.54532 -0.0506,28.90864 3.78968,31.55545 1.75145,1.20715 7.05083,1.3071 69.29796,1.3071 61.57384,0 67.58889,-0.1107 69.56905,-1.28041 1.19217,-0.70423 2.51588,-1.9986 2.94157,-2.87637 0.4257,-0.87777 0.9283,-7.8089 1.11688,-15.40251 0.30871,-12.43023 0.5483,-14.41534 2.40337,-19.91356 3.53212,-10.46873 10.75673,-19.64494 19.51222,-24.78308 3.21906,-1.8891 12.40446,-5.54389 13.93317,-5.54389 0.45321,0 0.73214,12.26888 0.73214,32.2032 v 32.2032 l 2.2376,2.50496 2.23759,2.50495 32.67093,0.21569 32.67092,0.2157 -0.49499,2.0854 c -3.44104,14.49716 -16.03268,27.84827 -30.58698,32.43184 -1.97211,0.62107 -10.51538,1.12746 -23.91546,1.41755 -19.43278,0.42069 -20.9901,0.55801 -22.95162,2.02386 -1.15735,0.86491 -2.36358,2.07299 -2.6805,2.68461 -0.31691,0.61163 -2.69417,5.59919 -5.28279,11.08346 -13.77524,29.18441 -35.53725,51.4735 -64.37053,65.92965 -14.84089,7.44078 -32.06036,12.4683 -48.3954,14.12988 l -7.28679,0.74121 -25.31203,-25.20254 c -22.76463,-22.66617 -25.82708,-25.44352 -30.42981,-27.59698 -7.07113,-3.30832 -13.96881,-4.36459 -20.82467,-3.18894 -15.16612,2.60071 -26.502,13.9468 -29.04451,29.07068 -1.45195,8.6368 -0.25009,13.83526 6.11823,26.46355 0.38082,0.75517 -40.7301,0.54963 -48.16374,-0.2408 z"
     id="path977"
     inkscape:connector-curvature="0" /><path
     style="fill:#008000;fill-opacity:0;stroke-width:0.76703107"
     d="M 141.16584,345.4485 C 92.83291,340.30917 50.393751,310.29524 29.115764,266.20418 21.376279,250.16686 15.265233,227.93283 16.934854,221.88596 c 0.834731,-3.02314 3.948074,-6.30351 7.119967,-7.50194 1.468775,-0.55494 24.813057,-0.81583 73.000856,-0.81583 h 70.841593 l 2.24755,-1.89118 c 1.33677,-1.12482 2.93804,-3.78492 3.95149,-6.56442 7.01211,-19.23136 23.30501,-36.87994 41.78087,-45.25729 5.91956,-2.68406 16.09189,-5.71592 21.74586,-6.48135 l 4.02692,-0.54516 0.0244,27.87685 c 0.0258,29.54532 -0.0506,28.90864 3.78968,31.55545 1.75145,1.20715 7.05083,1.3071 69.29796,1.3071 61.57384,0 67.58889,-0.1107 69.56905,-1.28041 1.19217,-0.70423 2.51588,-1.9986 2.94157,-2.87637 0.4257,-0.87777 0.9283,-7.8089 1.11688,-15.40251 0.30871,-12.43023 0.5483,-14.41534 2.40337,-19.91356 3.53212,-10.46873 10.75673,-19.64494 19.51222,-24.78308 3.21906,-1.8891 12.40446,-5.54389 13.93317,-5.54389 0.45321,0 0.73214,12.26888 0.73214,32.2032 v 32.2032 l 2.2376,2.50496 2.23759,2.50495 32.67093,0.21569 32.67092,0.2157 -0.49499,2.0854 c -3.44104,14.49716 -16.03268,27.84827 -30.58698,32.43184 -1.97211,0.62107 -10.51538,1.12746 -23.91546,1.41755 -19.43278,0.42069 -20.9901,0.55801 -22.95162,2.02386 -1.15735,0.86491 -2.36358,2.07299 -2.6805,2.68461 -0.31691,0.61163 -2.69417,5.59919 -5.28279,11.08346 -13.77524,29.18441 -35.53725,51.4735 -64.37053,65.92965 -14.84089,7.44078 -32.06036,12.4683 -48.3954,14.12988 l -7.28679,0.74121 -25.31203,-25.20254 c -22.76463,-22.66617 -25.82708,-25.44352 -30.42981,-27.59698 -7.07113,-3.30832 -13.96881,-4.36459 -20.82467,-3.18894 -15.16612,2.60071 -26.502,13.9468 -29.04451,29.07068 -1.45195,8.6368 -0.25009,13.83526 6.11823,26.46355 0.38082,0.75517 -40.7301,0.54963 -48.16374,-0.2408 z"
     id="path979"
     inkscape:connector-curvature="0" /><path
     style="fill:#008000;fill-opacity:0;stroke-width:0.76703107"
     d="M 141.16584,345.4485 C 92.83291,340.30917 50.393751,310.29524 29.115764,266.20418 21.376279,250.16686 15.265233,227.93283 16.934854,221.88596 c 0.834731,-3.02314 3.948074,-6.30351 7.119967,-7.50194 1.468775,-0.55494 24.813057,-0.81583 73.000856,-0.81583 h 70.841593 l 2.24755,-1.89118 c 1.33677,-1.12482 2.93804,-3.78492 3.95149,-6.56442 7.01211,-19.23136 23.30501,-36.87994 41.78087,-45.25729 5.91956,-2.68406 16.09189,-5.71592 21.74586,-6.48135 l 4.02692,-0.54516 0.0244,27.87685 c 0.0258,29.54532 -0.0506,28.90864 3.78968,31.55545 1.75145,1.20715 7.05083,1.3071 69.29796,1.3071 61.57384,0 67.58889,-0.1107 69.56905,-1.28041 1.19217,-0.70423 2.51588,-1.9986 2.94157,-2.87637 0.4257,-0.87777 0.9283,-7.8089 1.11688,-15.40251 0.30871,-12.43023 0.5483,-14.41534 2.40337,-19.91356 3.53212,-10.46873 10.75673,-19.64494 19.51222,-24.78308 3.21906,-1.8891 12.40446,-5.54389 13.93317,-5.54389 0.45321,0 0.73214,12.26888 0.73214,32.2032 v 32.2032 l 2.2376,2.50496 2.23759,2.50495 32.67093,0.21569 32.67092,0.2157 -0.49499,2.0854 c -3.44104,14.49716 -16.03268,27.84827 -30.58698,32.43184 -1.97211,0.62107 -10.51538,1.12746 -23.91546,1.41755 -19.43278,0.42069 -20.9901,0.55801 -22.95162,2.02386 -1.15735,0.86491 -2.36358,2.07299 -2.6805,2.68461 -0.31691,0.61163 -2.69417,5.59919 -5.28279,11.08346 -13.77524,29.18441 -35.53725,51.4735 -64.37053,65.92965 -14.84089,7.44078 -32.06036,12.4683 -48.3954,14.12988 l -7.28679,0.74121 -25.31203,-25.20254 c -22.76463,-22.66617 -25.82708,-25.44352 -30.42981,-27.59698 -7.07113,-3.30832 -13.96881,-4.36459 -20.82467,-3.18894 -15.16612,2.60071 -26.502,13.9468 -29.04451,29.07068 -1.45195,8.6368 -0.25009,13.83526 6.11823,26.46355 0.38082,0.75517 -40.7301,0.54963 -48.16374,-0.2408 z"
     id="path981"
     inkscape:connector-curvature="0" /><path
     style="display:inline;fill:url(#linearGradient1031);fill-opacity:1;stroke-width:0.76703107"
     d="M 141.16584,345.4485 C 98.999733,340.96489 60.242797,316.95995 37.219251,281.06693 31.975655,272.89232 25.07799,258.28183 21.966317,248.75848 18.258209,237.40973 15.991392,225.3029 16.934854,221.88596 c 0.834731,-3.02314 3.948074,-6.30351 7.119967,-7.50194 1.468813,-0.55495 24.826776,-0.81583 73.047607,-0.81583 h 70.888342 l 2.26178,-2.10933 c 1.3084,-1.22022 3.25592,-4.64577 4.62027,-8.12674 9.7816,-24.95646 32.01853,-43.67199 58.51031,-49.2447 9.26843,-1.94968 8.26325,-5.18542 8.29122,26.6902 0.0258,29.46845 -0.0502,28.83697 3.78968,31.48347 1.75145,1.20715 7.05083,1.3071 69.29796,1.3071 61.91226,0 67.58025,-0.1056 69.59665,-1.29672 1.20734,-0.71319 2.52941,-2.18014 2.93793,-3.25988 0.40851,-1.07974 0.90005,-8.00353 1.09229,-15.3862 0.3122,-11.98853 0.56943,-14.0757 2.40702,-19.53005 3.52536,-10.46405 10.75156,-19.64367 19.5092,-24.78308 3.21906,-1.8891 12.40446,-5.54389 13.93317,-5.54389 0.45321,0 0.73214,12.26888 0.73214,32.2032 v 32.2032 l 2.2376,2.50496 2.23759,2.50495 32.67093,0.21569 32.67092,0.2157 -0.49889,2.0854 c -2.8089,11.74161 -12.18619,23.69025 -22.82173,29.0797 -8.40989,4.2616 -8.76412,4.31573 -31.29316,4.7818 -19.8308,0.41024 -21.36948,0.5429 -23.33513,2.01175 -2.42018,1.80852 -1.97724,1.05046 -7.53162,12.88975 -4.92248,10.49235 -8.28891,16.27555 -14.02259,24.08944 -23.65099,32.23167 -59.81333,52.8986 -99.55866,56.8982 l -6.90328,0.69468 -25.31203,-25.20418 c -22.76566,-22.66866 -25.82687,-25.44504 -30.42981,-27.5986 -7.0799,-3.31243 -13.96759,-4.36479 -20.84672,-3.18515 -15.01914,2.57549 -26.50236,14.07629 -29.02246,29.06689 -1.45195,8.6368 -0.25009,13.83526 6.11823,26.46355 0.38082,0.75517 -40.7301,0.54963 -48.16374,-0.2408 z"
     id="path1006"
     inkscape:connector-curvature="0" /><path
     style="display:inline;fill:url(#linearGradient1041);fill-opacity:1;stroke-width:0.76703107"
     d="m 248.93675,368.78965 c -5.03147,-0.77489 -10.98123,-2.83791 -15.72413,-5.45219 -6.87445,-3.78917 -29.32771,-25.77976 -31.92073,-31.26296 -3.45137,-7.29828 -1.81736,-15.0573 4.3361,-20.58979 6.26247,-5.6305 14.14018,-6.55608 21.00276,-2.46769 1.72162,1.02567 14.46595,13.22485 28.32073,27.1093 l 25.19051,25.24447 -2.87788,1.69798 c -7.11629,4.19872 -20.56945,6.91566 -28.32736,5.72088 z"
     id="path1008"
     inkscape:connector-curvature="0" /><path
     style="display:inline;fill:url(#linearGradient1051);fill-opacity:1;stroke-width:0.76703107"
     d="m 143.86838,368.45654 c -6.85445,-1.14567 -18.57095,-6.13892 -17.70239,-7.54428 0.18449,-0.29852 3.20416,-0.0888 6.71038,0.46612 3.50621,0.55488 13.96855,1.23481 23.24962,1.51097 l 16.87469,0.5021 -4.21868,1.87567 c -4.48582,1.99444 -13.95736,3.99663 -18.40874,3.89141 -1.47654,-0.0349 -4.40373,-0.3508 -6.50488,-0.70199 z"
     id="path1010"
     inkscape:connector-curvature="0" /></g><g
   inkscape:groupmode="layer"
   id="layer3"
   inkscape:label="contour"
   style="display:inline"><g
     id="g16"
     style="fill:#101c12;fill-opacity:1">
	<g
   id="g14"
   style="fill:#101c12;fill-opacity:1">
		<g
   id="g12"
   style="fill:#101c12;fill-opacity:1">
			
			
			
			<path
   d="m 509.642,199.496 c -1.511,-1.511 -3.559,-2.359 -5.696,-2.359 h -62.633 v -62.635 c 0,-4.448 -3.605,-8.054 -8.054,-8.054 -0.002,0 0,0 -0.002,0 -33.766,0 -61.243,27.475 -61.245,61.244 v 9.444 H 257.784 v -53.161 c 0,-4.448 -3.606,-8.054 -8.054,-8.054 -40.072,0 -75.652,24.367 -90.303,61.215 H 27.798 C 12.47,197.138 0,209.61 0,224.939 c 0,1.063 0.062,2.14 0.184,3.202 0.01,0.087 0.021,0.174 0.034,0.26 5.466,37 24.092,70.968 52.45,95.648 16.378,14.255 35.397,24.84 55.789,31.297 l -0.877,0.877 c -1.511,1.51 -2.359,3.559 -2.359,5.695 0,2.136 0.848,4.185 2.359,5.696 11.942,11.941 27.622,17.91 43.308,17.909 15.681,-0.001 31.369,-5.971 43.307,-17.908 l 4.911,-4.911 h 7.611 l 4.911,4.91 c 11.567,11.568 26.948,17.938 43.307,17.938 16.359,0 31.741,-6.37 43.308,-17.938 1.511,-1.511 2.359,-3.559 2.359,-5.696 0,-0.125 -0.013,-0.248 -0.019,-0.373 26.396,-3.169 51.45,-12.909 73.16,-28.596 23.555,-17.019 41.793,-39.929 53.008,-66.513 h 24.006 c 33.769,0 61.243,-27.475 61.243,-61.245 0,-2.136 -0.848,-4.184 -2.358,-5.695 z m -384.468,161.915 1.476,-1.476 c 9.625,1.826 19.458,2.771 29.381,2.771 h 18.581 c -15.155,9.364 -34.689,8.937 -49.438,-1.295 z m 129.759,8.034 c -12.057,0 -23.391,-4.695 -31.916,-13.22 l -18.478,-18.477 c -7.23,-7.23 -7.23,-18.993 0,-26.224 3.502,-3.502 8.159,-5.431 13.11,-5.431 4.953,0 9.608,1.929 13.11,5.431 l 49.892,49.891 c -7.496,5.22 -16.393,8.03 -25.718,8.03 z M 450.757,250.329 h -29.451 c -3.342,0 -6.336,2.064 -7.527,5.187 -20.113,52.799 -69.133,88.223 -125.352,90.894 l -46.276,-46.276 c -6.544,-6.544 -15.246,-10.15 -24.501,-10.15 -9.255,0 -17.957,3.604 -24.501,10.148 -12.692,12.694 -13.457,32.865 -2.3,46.463 h -34.815 c -34.127,0 -67.079,-12.323 -92.787,-34.698 -25.424,-22.127 -42.136,-52.563 -47.069,-85.709 -0.046,-0.416 -0.068,-0.837 -0.068,-1.25 0,-6.447 5.244,-11.692 11.69,-11.692 h 137.267 c 3.476,0 6.559,-2.231 7.649,-5.531 10.137,-30.731 37.271,-52.158 68.96,-55.288 v 52.765 c 0,4.448 3.606,8.054 8.054,8.054 h 130.335 c 4.449,0 8.054,-3.606 8.054,-8.054 v -17.498 c 0.002,-22.141 16.025,-40.609 37.084,-44.417 v 61.916 c 0,2.136 0.848,4.185 2.358,5.695 1.511,1.511 3.559,2.359 5.696,2.359 h 61.913 c -3.806,21.059 -22.273,37.082 -44.413,37.082 z"
   id="path8"
   inkscape:connector-curvature="0"
   style="fill:#101c12;fill-opacity:1" />
			
		</g>
	</g>
</g></g><g
   inkscape:groupmode="layer"
   id="layer2"
   inkscape:label="organs"
   style="display:inline"><circle
     cx="93.121002"
     cy="234.834"
     r="9.2510004"
     id="circle2" /><path
     d="m 149.55832,238.75723 c -2.35236,1.74426 -3.04666,5.38337 -1.5509,8.12769 3.78546,6.94633 5.78691,14.99216 5.78691,23.26679 -6.2e-4,8.27537 -2.00145,16.32045 -5.78691,23.26606 -1.49514,2.74432 -0.80083,6.38344 1.5509,8.1277 0.83969,0.62358 1.77649,0.92038 2.70328,0.92038 1.66871,0 3.30234,-0.96497 4.26422,-2.72971 4.81563,-8.8368 7.36162,-19.06624 7.36224,-29.58297 0,-10.516 -2.54599,-20.74616 -7.36224,-29.58443 -1.49577,-2.74578 -4.61451,-3.55723 -6.9675,-1.81151 z"
     id="path4"
     inkscape:connector-curvature="0"
     style="stroke-width:0.67682362" /><path
     d="m 134.57564,256.81243 c -1.49576,-2.74359 -4.61512,-3.5543 -6.96749,-1.80858 -2.35173,1.74499 -3.04604,5.38409 -1.55028,8.12842 1.14109,2.09369 1.74454,4.52075 1.74454,7.01944 0,2.49869 -0.60282,4.92647 -1.74454,7.01871 -1.49576,2.74359 -0.80209,6.3827 1.54966,8.12769 0.83969,0.62358 1.77712,0.92112 2.7039,0.92112 1.66809,0 3.30171,-0.96497 4.26296,-2.72898 2.17314,-3.98489 3.32175,-8.59775 3.32175,-13.33926 6.2e-4,-4.7408 -1.14736,-9.35366 -3.3205,-13.33856 z"
     id="path6"
     inkscape:connector-curvature="0"
     style="stroke-width:0.67682362" /><path
     d="m 145.56356,248.68109 c -1.49576,-2.74433 -4.61511,-3.55432 -6.96748,-1.80933 -2.35173,1.745 -3.04667,5.38411 -1.55091,8.12843 2.46517,4.5222 3.76793,9.76157 3.76793,15.15225 0,5.39069 -1.30276,10.63004 -3.76793,15.15226 -1.49513,2.74432 -0.80082,6.38343 1.55091,8.12842 0.83969,0.62284 1.77712,0.92038 2.70329,0.92038 1.6687,0 3.30232,-0.96496 4.26357,-2.7297 3.49596,-6.41414 5.34326,-13.83858 5.34326,-21.47136 6.2e-4,-7.63278 -1.8473,-15.05722 -5.34264,-21.47135 z"
     id="path10"
     inkscape:connector-curvature="0"
     style="stroke-width:0.67682362" /></g></svg>